<?xml version="1.0" encoding="UTF-8"?>
<!DOCTYPE svg PUBLIC "-//W3C//DTD SVG 1.1//EN" "http://www.w3.org/Graphics/SVG/1.1/DTD/svg11.dtd">
<svg xmlns="http://www.w3.org/2000/svg" version="1.1" width="1366px" height="768px" style="shape-rendering:geometricPrecision; text-rendering:geometricPrecision; image-rendering:optimizeQuality; fill-rule:evenodd; clip-rule:evenodd" xmlns:xlink="http://www.w3.org/1999/xlink">
<g><path style="opacity:0.744" fill="#fefffe" d="M 577.5,276.5 C 574.491,278.664 571.158,280.164 567.5,281C 568.34,282.666 567.84,282.833 566,281.5C 563.096,283.852 559.929,285.519 556.5,286.5C 553.699,287.766 550.699,288.599 547.5,289C 537.004,298.94 525.671,308.773 513.5,318.5C 500.375,330.367 487.375,342.867 474.5,356C 444.319,383.011 413.652,409.511 382.5,435.5C 371.565,444.432 361.231,454.099 351.5,464.5C 351.833,464.833 352.167,465.167 352.5,465.5C 354.364,464.007 356.53,463.34 359,463.5C 369.54,464.677 380.04,464.343 390.5,462.5C 392.708,461.472 394.708,460.139 396.5,458.5C 397.768,459.428 399.101,459.595 400.5,459C 408.821,454.467 418.155,450.467 428.5,447C 428.167,446.667 427.833,446.333 427.5,446C 432.235,445.858 436.568,444.025 440.5,440.5C 441.167,440.833 441.833,441.167 442.5,441.5C 445.687,439.82 448.687,437.82 451.5,435.5C 453.591,436.5 455.257,435.833 456.5,433.5C 458.078,432.702 459.744,432.202 461.5,432C 460.304,431.346 460.304,430.846 461.5,430.5C 462.167,430.833 462.833,431.167 463.5,431.5C 467.075,430.081 470.242,428.081 473,425.5C 473.561,426.022 474.228,426.355 475,426.5C 478.708,423.554 482.541,421.72 486.5,421C 503.685,411.638 521.518,402.805 540,394.5C 550.471,388.427 561.471,382.76 573,377.5C 585.862,369.957 599.362,362.624 613.5,355.5C 630.712,346.46 648.046,337.627 665.5,329C 665.167,328.667 664.833,328.333 664.5,328C 672.292,324.604 679.959,320.937 687.5,317C 687.167,316.667 686.833,316.333 686.5,316C 690.192,316.002 693.525,314.502 696.5,311.5C 702.532,308.966 707.866,306.466 712.5,304C 715.443,301.016 718.777,299.516 722.5,299.5C 726.203,295.652 730.537,292.819 735.5,291C 738.9,289.012 742.567,287.846 746.5,287.5C 748.924,288.021 751.257,288.688 753.5,289.5C 753.664,292.187 753.497,294.854 753,297.5C 752.355,298.646 751.522,299.646 750.5,300.5C 730.279,311.023 709.612,321.523 688.5,332C 672.068,340.894 655.735,350.061 639.5,359.5C 638.914,359.291 638.414,358.957 638,358.5C 628.238,364.633 618.071,370.133 607.5,375C 608.34,376.666 607.84,376.833 606,375.5C 595.793,381.913 585.293,387.58 574.5,392.5C 556.662,401.525 538.829,410.858 521,420.5C 517.635,421.146 514.468,422.313 511.5,424C 511.833,424.333 512.167,424.667 512.5,425C 495.445,431.812 478.778,439.479 462.5,448C 457.249,450.309 451.916,452.309 446.5,454C 446.833,454.333 447.167,454.667 447.5,455C 443.432,456.159 439.432,457.493 435.5,459C 435.833,459.333 436.167,459.667 436.5,460C 431.533,460.483 427.199,462.316 423.5,465.5C 422.914,465.291 422.414,464.957 422,464.5C 419.281,465.78 416.781,467.447 414.5,469.5C 436.614,473.781 457.614,479.281 477.5,486C 494.668,495.001 512.002,503.667 529.5,512C 552.479,525.074 576.813,536.741 602.5,547C 616.512,550.942 630.512,554.776 644.5,558.5C 653.823,559.444 663.156,560.277 672.5,561C 674.995,562.304 677.662,562.471 680.5,561.5C 689.147,562.665 697.814,563.165 706.5,563C 705.304,562.346 705.304,561.846 706.5,561.5C 711.505,562.432 716.338,562.432 721,561.5C 724.254,560.534 727.254,559.201 730,557.5C 730.561,558.022 731.228,558.355 732,558.5C 734.578,556.981 737.411,556.148 740.5,556C 739.304,555.346 739.304,554.846 740.5,554.5C 741.167,554.833 741.833,555.167 742.5,555.5C 757.655,549.228 771.989,542.728 785.5,536C 788.584,533.777 791.751,531.61 795,529.5C 795.873,529.735 796.707,530.069 797.5,530.5C 799.167,528.833 800.833,527.167 802.5,525.5C 814.259,518.614 824.926,510.281 834.5,500.5C 842.046,495.5 848.88,490.5 855,485.5C 855.49,484.207 855.657,482.873 855.5,481.5C 857.972,481.058 860.472,480.725 863,480.5C 865.05,480.691 866.883,481.358 868.5,482.5C 868.433,492.232 868.433,501.732 868.5,511C 870.271,513.891 872.271,516.558 874.5,519C 874.167,519.333 873.833,519.667 873.5,520C 880.873,522.549 887.873,525.883 894.5,530C 898.192,529.996 901.525,530.996 904.5,533C 912.655,533.47 920.655,534.804 928.5,537C 936.522,536.829 944.522,536.996 952.5,537.5C 958.236,536.428 963.903,535.428 969.5,534.5C 975.153,534.34 980.82,534.34 986.5,534.5C 989.429,533.244 992.262,531.91 995,530.5C 996.231,531.108 997.564,531.441 999,531.5C 1004.52,529.896 1010.02,528.229 1015.5,526.5C 1023.87,527.225 1032.2,528.225 1040.5,529.5C 1049.62,537.925 1059.62,545.092 1070.5,551C 1085.93,557.248 1101.93,561.915 1118.5,565C 1127.52,565.668 1136.52,566.501 1145.5,567.5C 1147.37,566.932 1149.2,566.266 1151,565.5C 1165.31,565.58 1179.47,565.58 1193.5,565.5C 1200.19,566.226 1203.03,569.893 1202,576.5C 1201.67,576.167 1201.33,575.833 1201,575.5C 1198.39,579.412 1194.89,580.412 1190.5,578.5C 1186.07,580.802 1181.41,581.136 1176.5,579.5C 1174.63,580.068 1172.8,580.734 1171,581.5C 1149.3,581.498 1127.63,580.165 1106,577.5C 1087.49,573.218 1069.83,566.551 1053,557.5C 1046.07,553.102 1039.57,548.102 1033.5,542.5C 1028.83,541.833 1024.17,541.167 1019.5,540.5C 1016.69,541.97 1013.69,542.803 1010.5,543C 1011.7,543.654 1011.7,544.154 1010.5,544.5C 1009.55,544.013 1008.55,543.68 1007.5,543.5C 997.358,545.494 987.524,547.494 978,549.5C 976.016,549.074 974.016,548.74 972,548.5C 966.652,549.617 961.319,550.617 956,551.5C 951.144,549.951 946.477,550.285 942,552.5C 933.866,551.475 925.699,550.641 917.5,550C 905.675,547.614 894.008,544.614 882.5,541C 882.833,540.667 883.167,540.333 883.5,540C 877.046,537.219 870.713,534.219 864.5,531C 858.256,525.356 855.256,518.523 855.5,510.5C 854.528,508.695 853.361,507.028 852,505.5C 840.981,514.551 830.314,523.218 820,531.5C 816.833,533.667 813.667,535.833 810.5,538C 810.833,538.333 811.167,538.667 811.5,539C 806.503,541.33 801.503,543.664 796.5,546C 793.717,547.466 791.217,549.299 789,551.5C 788.586,551.043 788.086,550.709 787.5,550.5C 777.728,555.709 767.395,560.543 756.5,565C 757.696,565.654 757.696,566.154 756.5,566.5C 755.833,566.167 755.167,565.833 754.5,565.5C 744.823,569.615 734.823,572.948 724.5,575.5C 723.446,575.32 722.446,574.987 721.5,574.5C 715.679,576.285 709.679,577.285 703.5,577.5C 690.155,577.696 676.822,577.196 663.5,576C 650.593,573.545 637.76,571.045 625,568.5C 610.34,564.504 595.84,560.004 581.5,555C 581.833,554.667 582.167,554.333 582.5,554C 577.068,551.633 571.402,549.633 565.5,548C 565.833,547.667 566.167,547.333 566.5,547C 535.185,532.009 504.852,516.675 475.5,501C 471.89,499.797 468.224,498.797 464.5,498C 464.833,497.667 465.167,497.333 465.5,497C 462.673,496.299 460.006,495.299 457.5,494C 441.197,489.784 424.864,485.784 408.5,482C 400.852,481.002 393.185,480.168 385.5,479.5C 371.675,482.994 358.175,487.328 345,492.5C 344.275,491.941 343.442,491.608 342.5,491.5C 339.698,492.619 337.031,493.952 334.5,495.5C 333.707,495.069 332.873,494.735 332,494.5C 328.86,495.624 325.86,496.957 323,498.5C 319.927,497.383 316.76,497.216 313.5,498C 313.833,498.333 314.167,498.667 314.5,499C 312.833,499.333 311.167,499.667 309.5,500C 274.324,530.624 240.824,560.791 209,590.5C 206.13,592.628 204.297,594.962 203.5,597.5C 192.061,607.777 181.394,618.277 171.5,629C 164.378,627.959 161.878,623.792 164,616.5C 169.825,609.009 176.325,602.175 183.5,596C 183.167,595.667 182.833,595.333 182.5,595C 183.737,594.768 184.737,594.268 185.5,593.5C 219.966,560.026 255.299,527.693 291.5,496.5C 289.739,494.747 288.406,492.747 287.5,490.5C 287.769,486.9 288.769,483.567 290.5,480.5C 295.003,477.147 299.837,474.48 305,472.5C 305.772,472.645 306.439,472.978 307,473.5C 313.562,471.309 320.062,468.809 326.5,466C 362.54,433.619 399.54,401.285 437.5,369C 437.167,368.667 436.833,368.333 436.5,368C 440.367,365.586 444.033,362.919 447.5,360C 447.167,359.667 446.833,359.333 446.5,359C 448.624,358.042 450.624,356.875 452.5,355.5C 469.67,338.294 487.503,321.961 506,306.5C 506.688,305.668 506.521,305.002 505.5,304.5C 501.135,306.621 496.468,307.788 491.5,308C 492.888,308.889 492.722,309.389 491,309.5C 489.287,308.047 487.787,308.214 486.5,310C 478.86,310.778 471.526,311.945 464.5,313.5C 457.748,312.902 455.082,309.235 456.5,302.5C 459.01,301.843 461.177,300.509 463,298.5C 464,298.833 465,299.167 466,299.5C 472.363,298.12 478.696,296.453 485,294.5C 485.772,294.645 486.439,294.978 487,295.5C 499.601,292.181 511.435,288.514 522.5,284.5C 525.302,283.381 527.969,282.048 530.5,280.5C 531.086,280.709 531.586,281.043 532,281.5C 545.724,271.357 558.89,260.357 571.5,248.5C 609.25,218.243 647.084,187.243 685,155.5C 685.333,155.833 685.667,156.167 686,156.5C 692.952,151.882 699.618,146.882 706,141.5C 706.561,142.022 707.228,142.355 708,142.5C 715.097,137.375 721.764,138.042 728,144.5C 728.168,149.172 727.834,153.839 727,158.5C 713.271,179.967 695.438,198.133 673.5,213C 673.833,213.333 674.167,213.667 674.5,214C 670.925,215.57 667.592,217.57 664.5,220C 664.833,220.333 665.167,220.667 665.5,221C 660.473,223.191 656.139,226.357 652.5,230.5C 651.914,230.291 651.414,229.957 651,229.5C 648.773,232.099 646.273,234.432 643.5,236.5C 633.687,242.246 624.353,248.746 615.5,256C 602.79,263.69 590.123,270.524 577.5,276.5 Z M 707.5,159.5 C 708.162,157.168 709.495,156.501 711.5,157.5C 710.423,158.705 709.09,159.372 707.5,159.5 Z M 707.5,159.5 C 706.111,162.607 704.445,165.607 702.5,168.5C 696.636,172.85 691.969,177.683 688.5,183C 658.989,207.398 628.989,229.398 598.5,249C 596.975,250.009 595.308,250.509 593.5,250.5C 603.734,241.614 614.067,232.614 624.5,223.5C 640.87,211.244 657.203,197.911 673.5,183.5C 681.915,177.924 689.915,171.757 697.5,165C 700.989,163.32 704.322,161.487 707.5,159.5 Z M 593.5,250.5 C 594.66,252.203 593.993,252.869 591.5,252.5C 591.5,251.167 592.167,250.5 593.5,250.5 Z M 591.5,252.5 C 591.179,254.048 590.179,254.715 588.5,254.5C 588.973,253.094 589.973,252.427 591.5,252.5 Z M 588.5,254.5 C 588.217,255.289 587.717,255.956 587,256.5C 586.472,255.184 586.972,254.517 588.5,254.5 Z"/></g>
<g><path style="opacity:0.004" fill="#fefffe" d="M 577.5,276.5 C 578.833,277.167 578.833,277.167 577.5,276.5 Z"/></g>
<g><path style="opacity:0.004" fill="#fefffe" d="M 556.5,286.5 C 557.833,287.167 557.833,287.167 556.5,286.5 Z"/></g>
<g><path style="opacity:0.004" fill="#fefffe" d="M 613.5,355.5 C 612.833,354.167 612.833,354.167 613.5,355.5 Z"/></g>
<g><path style="opacity:0.004" fill="#fefffe" d="M 574.5,392.5 C 575.833,393.167 575.833,393.167 574.5,392.5 Z"/></g>
<g><path style="opacity:0.004" fill="#fefffe" d="M 382.5,435.5 C 383.833,436.167 383.833,436.167 382.5,435.5 Z"/></g>
<g><path style="opacity:0.004" fill="#fefffe" d="M 185.5,593.5 C 184.833,592.167 184.833,592.167 185.5,593.5 Z"/></g>
</svg>
