<?xml version="1.0" encoding="UTF-8"?>
<!-- Generator: visioncortex VTracer 0.6.2 -->
<svg version="1.1" xmlns="http://www.w3.org/2000/svg" width="1280" height="719">
<path d="M0 0 C2.81874037 1.62077571 3.62637901 2.86057202 4.62890625 5.91796875 C5.70288252 11.38460472 4.65931772 15.2721334 1.96875 20.0703125 C-5.30434172 30.89336565 -14.09144242 41.48116725 -24 50 C-24.66 50 -25.32 50 -26 50 C-26 50.66 -26 51.32 -26 52 C-27.87890625 53.7421875 -27.87890625 53.7421875 -30.5625 55.875 C-31.56925781 56.679375 -32.57601563 57.48375 -33.61328125 58.3125 C-34.16193848 58.74691406 -34.7105957 59.18132812 -35.27587891 59.62890625 C-37.04118437 61.03275155 -38.79316891 62.4518867 -40.54296875 63.875 C-49.16440354 70.86671735 -57.99136378 77.5171273 -67 84 C-68.21094147 84.8762966 -69.42187901 85.75259863 -70.6328125 86.62890625 C-76.96828018 91.19826925 -83.36639858 95.6476078 -89.890625 99.9453125 C-92.0997721 101.40512579 -94.29617045 102.87675839 -96.484375 104.3671875 C-111.86644028 114.81631275 -127.48241609 123.42592397 -144.52099609 130.90429688 C-148.85727487 132.82090305 -153.14548902 134.83860003 -157.44140625 136.84375 C-160 138 -160 138 -162.453125 138.83984375 C-165.83357638 140.37971194 -168.42033939 142.63642246 -171.1875 145.0625 C-171.75122314 145.5469458 -172.31494629 146.0313916 -172.89575195 146.53051758 C-177.3757264 150.39823518 -181.75003434 154.37687333 -186.07421875 158.41796875 C-188 160 -188 160 -190 160 C-190.33 160.99 -190.66 161.98 -191 163 C-192.63506539 164.45690361 -194.33332325 165.84364186 -196.0625 167.1875 C-200.35710293 170.61097546 -204.27378475 174.15649535 -208.09765625 178.08984375 C-212.20645593 182.21551735 -216.69030602 185.93293027 -221.1875 189.625 C-223.95566785 191.96256396 -226.46981629 194.40810449 -229 197 C-233.15155158 201.24946553 -237.28060658 205.37813993 -242 209 C-242.66 209 -243.32 209 -244 209 C-244.33 209.99 -244.66 210.98 -245 212 C-246.4609375 213.47265625 -246.4609375 213.47265625 -248.375 215.0625 C-251.8137449 217.97742175 -255.17403784 220.95660566 -258.5 224 C-263.9967858 229.00801551 -269.56000294 233.92210989 -275.21875 238.74609375 C-276.41680775 239.7680638 -277.6147201 240.79020431 -278.8125 241.8125 C-279.41852051 242.32965576 -280.02454102 242.84681152 -280.64892578 243.37963867 C-284.39032262 246.5847653 -288.06098478 249.85193729 -291.6875 253.1875 C-296.09621567 257.23420969 -300.66065675 261.02753715 -305.31640625 264.78515625 C-308.80835948 267.66716132 -312.13551156 270.71174991 -315.48046875 273.76171875 C-318.03204917 276.02847158 -320.65171532 278.17540087 -323.3125 280.3125 C-328.23698908 284.29131906 -332.88930042 288.50293199 -337.49731445 292.83911133 C-339.87084704 295.06678645 -342.23774807 297.18275648 -344.8203125 299.16796875 C-347.25339389 300.88890583 -347.25339389 300.88890583 -348 304 C-347.13761719 303.9278125 -346.27523437 303.855625 -345.38671875 303.78125 C-344.16597656 303.6884375 -342.94523438 303.595625 -341.6875 303.5 C-341.01887939 303.4479541 -340.35025879 303.3959082 -339.66137695 303.34228516 C-335.88297323 303.08158613 -332.19041557 302.99240012 -328.40625 303.1796875 C-317.15677405 303.70207264 -309.06778108 301.89778478 -298.85839844 297.27197266 C-295.44238842 295.7518657 -291.99391435 294.31551737 -288.5390625 292.88671875 C-280.67586255 289.63048289 -272.83473894 286.32406454 -265 283 C-264.10845215 282.62278809 -263.2169043 282.24557617 -262.29833984 281.85693359 C-254.30303198 278.46451917 -246.45811574 274.84262094 -238.75024414 270.83862305 C-235.26843968 269.04841724 -231.77342842 267.48266461 -228.125 266.05859375 C-223.0527785 264.06934544 -218.22518724 261.72513792 -213.375 259.25 C-212.07477905 258.59366577 -212.07477905 258.59366577 -210.74829102 257.92407227 C-208.16382613 256.61937914 -205.58178557 255.30998507 -203 254 C-200.31450264 252.64182438 -197.62700483 251.28772167 -194.9375 249.9375 C-194.29973633 249.61668457 -193.66197266 249.29586914 -193.00488281 248.96533203 C-188.71456822 246.82017473 -184.385898 244.77063454 -180.03662109 242.74804688 C-172.02390968 239.01667691 -164.25619786 235.01745585 -156.56347656 230.66503906 C-149.17660178 226.49633722 -141.61600957 222.72863198 -134 219 C-125.88266055 215.0249321 -117.85082213 210.98317211 -110 206.5 C-102.14913865 202.0168055 -94.11706176 197.97566345 -86 194 C-77.0103125 189.5958739 -68.22496281 185.04095216 -59.5703125 180.00390625 C-55.08850054 177.4426921 -50.45299533 175.20199201 -45.8203125 172.9296875 C-41.78047339 170.93325538 -37.87124905 168.81330736 -34 166.5 C-29.01661648 163.53131772 -23.90994105 160.90004074 -18.71069336 158.33862305 C-12.45049504 155.24713984 -6.2523284 152.04234166 -0.0625 148.8125 C1.3757312 148.06383667 1.3757312 148.06383667 2.84301758 147.30004883 C3.77009521 146.81560303 4.69717285 146.33115723 5.65234375 145.83203125 C6.55194824 145.3623291 7.45155273 144.89262695 8.37841797 144.40869141 C11.62134639 142.66612324 14.78578493 140.80085917 17.93188477 138.8894043 C20.44603129 137.8081818 22.28841848 137.76534661 25 138 C27.66025956 139.65119559 27.9559419 140.81575703 28.6875 143.875 C28 147 28 147 25 149.3125 C23.34156043 150.22347385 21.67318784 151.11640642 20 152 C18.82048621 152.67284043 17.64359443 153.35028922 16.46875 154.03125 C9.14837738 158.25404608 1.72962784 162.18971386 -5.85742188 165.90942383 C-10.99764842 168.44894051 -16.00496178 171.18692336 -21 174 C-27.13095943 177.44789172 -33.31073623 180.71951157 -39.62036133 183.8269043 C-48.51299579 188.21636325 -57.27637447 192.8557685 -66.05859375 197.4609375 C-68.94214147 198.96972608 -71.8297407 200.47045001 -74.71875 201.96875 C-85.63027287 207.61929573 -85.63027287 207.61929573 -96.3125 213.6875 C-102.59255073 217.42373271 -109.11162899 220.63032631 -115.66455078 223.85058594 C-120.05433718 226.01106204 -124.43347693 228.19281383 -128.8125 230.375 C-129.63991699 230.78459961 -130.46733398 231.19419922 -131.31982422 231.61621094 C-137.22728908 234.55817997 -143.06967694 237.61266801 -148.90234375 240.69921875 C-159.11093687 246.0946865 -169.41641787 251.28635768 -179.75 256.4375 C-180.66654358 256.89499634 -181.58308716 257.35249268 -182.52740479 257.82385254 C-201.34075433 267.21190185 -220.21796356 276.38743141 -239.42578125 284.9453125 C-243.54029355 286.78292819 -247.61633874 288.69375239 -251.6875 290.625 C-257.68917772 293.44624567 -263.76670976 296.01235191 -269.91308594 298.50073242 C-275.01353893 300.57035295 -280.02269573 302.79092881 -284.99609375 305.15234375 C-287 306 -287 306 -289 306 C-289 306.99 -289 307.98 -289 309 C-288.40058594 309.08636719 -287.80117188 309.17273438 -287.18359375 309.26171875 C-255.82605061 314.12369912 -228.51711056 323.96245178 -200.70678711 339.00366211 C-196.12537756 341.45754119 -191.46770674 343.69642381 -186.75 345.875 C-179.72263139 349.12211784 -172.87307294 352.64182444 -166.03857422 356.27539062 C-152.48101327 363.47862769 -138.87644365 370.22295361 -124.50390625 375.65625 C-122.58871372 376.3907274 -120.67659439 377.13441112 -118.7824707 377.92163086 C-112.32066673 380.59443572 -105.78654945 382.65542415 -99.0625 384.5625 C-98.05509766 384.85318359 -97.04769531 385.14386719 -96.00976562 385.44335938 C-93.98908823 386.02422291 -91.96678058 386.59944556 -89.94287109 387.16894531 C-88.05169825 387.70300474 -86.16364524 388.24830924 -84.27978516 388.80761719 C-66.64326217 393.91470601 -47.73528536 395.22804059 -29.4375 395.875 C-27.55949707 395.94871826 -27.55949707 395.94871826 -25.64355469 396.02392578 C-17.5392754 396.23114363 -9.96020755 395.49324532 -2 394 C-1.20875732 393.86416504 -0.41751465 393.72833008 0.39770508 393.58837891 C11.83779492 391.57191797 22.08041522 387.85159289 32.63427734 383.06445312 C34.98040024 382.00881888 37.33984289 380.99177309 39.70703125 379.984375 C48.13388881 376.37159715 56.13313053 372.4089802 64.0234375 367.73828125 C66.40418998 366.3479468 68.75714836 365.10447238 71.25 363.9375 C79.86133459 359.70419686 87.15368928 353.32123028 94.52856445 347.27416992 C99.86178636 342.90528747 105.25226606 338.6162809 110.6875 334.375 C111.44160156 333.78323975 112.19570313 333.19147949 112.97265625 332.58178711 C116.54881035 329.80002013 120.11193929 327.33283643 124 325 C125.13350534 322.98330173 125.13350534 322.98330173 126 321 C129.45029042 318.69980639 130.94554358 318.56867485 135 319 C137.17956335 322.26934503 137.22057957 323.0365527 137.08984375 326.7890625 C137.06986328 327.73136719 137.04988281 328.67367188 137.02929688 329.64453125 C136.96881627 331.60822077 136.90382269 333.57177726 136.83398438 335.53515625 C136.6902042 342.84315548 136.93650193 349.80166487 142.21875 355.31640625 C175.9835006 375.75546174 218.43696873 374.73466851 256 367 C259.08929474 366.16579497 262.1356386 365.21095056 265.1875 364.25 C276.53406954 360.71669991 289.25689178 360.52337882 300 366 C302.21484375 367.53515625 302.21484375 367.53515625 303.9375 369.0625 C304.81728516 369.82240234 304.81728516 369.82240234 305.71484375 370.59765625 C307 372 307 372 307 374 C307.73476563 374.27457031 308.46953125 374.54914063 309.2265625 374.83203125 C311.82656751 375.92696294 314.00477139 377.16972203 316.375 378.6875 C328.06061318 385.75402125 339.80482034 390.19683132 353.0078125 393.48876953 C354.68302046 393.91865746 356.34380842 394.40419238 358 394.90234375 C373.7897002 399.51532302 390.86888214 399.1875 407.1875 399.1875 C407.91917389 399.1875 408.65084778 399.1875 409.4046936 399.1875 C416.4304375 399.17503662 423.43401855 399.09599811 430.4453125 398.59375 C431.37061768 398.52776611 432.29592285 398.46178223 433.24926758 398.39379883 C434.89469029 398.26136886 436.53842718 398.10442774 438.1784668 397.91674805 C442.25425544 397.56419995 443.72710765 397.78657057 447.01171875 400.35546875 C449 403 449 403 449 405.125 C447.85886892 407.26462078 446.89056837 408.47044863 445 410 C442.609375 410.52416992 442.609375 410.52416992 439.75 410.73046875 C438.68080322 410.81143799 437.61160645 410.89240723 436.51000977 410.97583008 C435.35170654 411.04568115 434.19340332 411.11553223 433 411.1875 C431.794646 411.26572998 430.58929199 411.34395996 429.34741211 411.42456055 C384.06211552 414.12267093 333.19553852 410.67292027 297 380 C296.23945312 379.29617188 295.47890625 378.59234375 294.6953125 377.8671875 C288.72738748 373.73288582 280.14508708 374.32113772 273.18554688 375.4609375 C267.51677187 376.61645219 261.91523905 378.00711345 256.33325195 379.52514648 C253.83736801 380.03309817 251.53908474 380.00902615 249 380 C248.67 380.33 248.34 380.66 248 381 C210.20119916 386.60407867 167.10326785 386.72266727 134 365 C128.40550581 360.53663305 126.32906955 354.91797742 125 348 C124.8125 344.375 124.8125 344.375 125 342 C121.19269885 342.54201162 118.97116439 343.44932282 116 345.875 C115.22785156 346.50019531 114.45570313 347.12539063 113.66015625 347.76953125 C110.00159227 350.83713776 106.36201978 353.92674045 102.72412109 357.01879883 C98.58942028 360.52430604 94.43874522 363.88980655 90 367 C88.92492187 367.75925781 87.84984375 368.51851563 86.7421875 369.30078125 C80.13662534 373.88029722 73.43629355 378.01378896 66.25 381.625 C65.57066406 381.96772949 64.89132812 382.31045898 64.19140625 382.66357422 C61.27653392 384.08331807 59.28385578 385 56 385 C56 385.66 56 386.32 56 387 C55.01257813 387.33773438 54.02515625 387.67546875 53.0078125 388.0234375 C51.71343623 388.47365533 50.41917113 388.92419284 49.125 389.375 C48.47402344 389.59671875 47.82304688 389.8184375 47.15234375 390.046875 C44.23449455 391.06962626 42.21443349 391.78556651 40 394 C38.26000977 394.74609375 38.26000977 394.74609375 36.19140625 395.4375 C35.44439453 395.69273437 34.69738281 395.94796875 33.92773438 396.2109375 C33.14720703 396.47132813 32.36667969 396.73171875 31.5625 397 C30.02080551 397.51688346 28.48038229 398.03757794 26.94140625 398.5625 C26.25763916 398.79066406 25.57387207 399.01882813 24.86938477 399.25390625 C22.7210056 400.03666974 22.7210056 400.03666974 20 402 C-8.10731271 412.77092935 -43.1676025 409.4639914 -72 404 C-73.79791674 403.68341377 -75.59608339 403.36824254 -77.39453125 403.0546875 C-88.92375767 400.97236467 -99.91333453 397.75065087 -111 394 C-112.55721073 393.48543209 -114.11450241 392.97110908 -115.671875 392.45703125 C-131.3114928 387.23819003 -146.33394273 380.49508452 -161 373 C-161.89203125 372.56429688 -162.7840625 372.12859375 -163.703125 371.6796875 C-169.16216981 369.01116001 -174.50206216 366.18050055 -179.80371094 363.21484375 C-189.88119152 357.58181062 -200.13211071 352.48244216 -210.578125 347.5703125 C-215.26624612 345.36384879 -219.88820963 343.04814049 -224.5 340.6875 C-231.81862319 336.97256724 -239.29614199 333.835622 -247 331 C-247.67530762 330.74887451 -248.35061523 330.49774902 -249.04638672 330.23901367 C-255.02051864 328.11832327 -261.00532517 326.96558671 -267.25 325.9375 C-269.17271966 325.61832854 -271.09463569 325.2942696 -273.015625 324.96484375 C-273.85383789 324.8268335 -274.69205078 324.68882324 -275.55566406 324.54663086 C-278.18635428 323.95832529 -280.5113846 323.02640525 -283 322 C-291.22963381 320.03429318 -299.54625621 318.4900721 -308 318 C-309.30904297 317.86851562 -309.30904297 317.86851562 -310.64453125 317.734375 C-318.9187289 317.23633848 -325.55574552 319.61158089 -333.21484375 322.34765625 C-340.25367562 324.8420486 -347.48295902 326.60954287 -354.72021484 328.42529297 C-356.92730286 328.98167391 -359.12994936 329.55307015 -361.33203125 330.12890625 C-362.70022379 330.48292085 -364.06870637 330.8358167 -365.4375 331.1875 C-366.41710693 331.43935059 -366.41710693 331.43935059 -367.41650391 331.69628906 C-371.43213098 332.69739234 -375.3975057 333.35641186 -379.5 333.875 C-385.44321368 334.8389797 -388.64289007 336.94338041 -393 341 C-394.13013881 342.03653414 -395.26035429 343.07298469 -396.390625 344.109375 C-398.82125105 346.34888199 -401.23186606 348.60765833 -403.6328125 350.87890625 C-412.31630886 359 -412.31630886 359 -415 359 C-415.33 359.99 -415.66 360.98 -416 362 C-417.49609375 363.5078125 -417.49609375 363.5078125 -419.4375 365.125 C-422.61879375 367.81947656 -425.73466636 370.56266639 -428.8125 373.375 C-433.23187522 377.37153376 -437.79949027 381.1443497 -442.45703125 384.859375 C-445.76289116 387.64218795 -448.73896393 390.68772544 -451.73046875 393.80078125 C-453.11573927 395.23804584 -454.556786 396.62092884 -456 398 C-456.66 398 -457.32 398 -458 398 C-458 398.66 -458 399.32 -458 400 C-459.64453125 401.69140625 -459.64453125 401.69140625 -461.8125 403.5625 C-462.52019531 404.18253906 -463.22789062 404.80257813 -463.95703125 405.44140625 C-466 407 -466 407 -469 408 C-469.33 408.99 -469.66 409.98 -470 411 C-471.54058838 412.51687622 -471.54058838 412.51687622 -473.51660156 414.14111328 C-478.18223997 418.10235516 -482.45040783 422.37558815 -486.734375 426.7421875 C-488.37601707 428.40132373 -490.0179526 430.06016962 -491.66015625 431.71875 C-494.21992643 434.30962249 -496.77727133 436.90276173 -499.32958984 439.50097656 C-501.81200587 442.02557991 -504.30365507 444.54075955 -506.796875 447.0546875 C-507.94225739 448.22800125 -507.94225739 448.22800125 -509.11077881 449.42501831 C-509.82542297 450.14311676 -510.54006714 450.86121521 -511.27636719 451.60107422 C-511.90065613 452.2350412 -512.52494507 452.86900818 -513.16815186 453.52218628 C-515.16590834 455.13384386 -516.4632972 455.70075525 -519 456 C-521.25 455 -521.25 455 -523 453 C-523.44921875 449.73828125 -523.44921875 449.73828125 -523 446 C-521.21279794 443.72404087 -519.6933423 442.0595783 -517.5625 440.1875 C-513.81154781 436.96921891 -513.81154781 436.96921891 -511 433 C-510.34 433 -509.68 433 -509 433 C-508.01 431.02 -508.01 431.02 -507 429 C-506.34 429 -505.68 429 -505 429 C-504.73445313 428.40832031 -504.46890625 427.81664062 -504.1953125 427.20703125 C-501.05075937 421.40091191 -495.07348546 417.15309593 -490.125 412.91015625 C-486.8885008 410.00087664 -483.89277292 406.8637125 -480.8828125 403.72265625 C-479 402 -479 402 -477 402 C-476.67 401.01 -476.34 400.02 -476 399 C-474.2578125 397.28125 -474.2578125 397.28125 -472.125 395.5 C-469.14615469 392.99734679 -469.14615469 392.99734679 -466.3671875 390.28125 C-465 389 -465 389 -463 389 C-463 388.34 -463 387.68 -463 387 C-461.63671875 385.625 -461.63671875 385.625 -459.6875 384 C-455.09976372 380.1180693 -450.70985957 376.04361528 -446.3203125 371.94140625 C-444 370 -444 370 -442 370 C-442 369.34 -442 368.68 -442 368 C-440.7421875 366.6953125 -440.7421875 366.6953125 -438.875 365.125 C-438.15183594 364.50882812 -437.42867188 363.89265625 -436.68359375 363.2578125 C-435.79800781 362.51273437 -434.91242188 361.76765625 -434 361 C-431.6417775 359.00474297 -429.2882947 357.00400198 -426.9375 355 C-426.32350342 354.47720459 -425.70950684 353.95440918 -425.0769043 353.41577148 C-421.43136904 350.29109718 -417.99139005 347.06539579 -414.6640625 343.6015625 C-411.36717427 340.42850106 -407.6631384 337.73281753 -404 335 C-404.27540704 331.18186553 -404.27540704 331.18186553 -406 328 C-406.36429392 324.55838116 -406.47893883 322.67970612 -404.453125 319.8046875 C-397.00109577 313.27755551 -389.44072405 310.6731341 -379.75 309.125 C-371.00923217 307.48523751 -365.15811651 300.39077879 -358.84765625 294.56640625 C-356.17191164 292.15493271 -353.43436575 289.87821765 -350.625 287.625 C-346.42185845 284.23614229 -342.43794843 280.68762564 -338.5 277 C-333.71681243 272.52086438 -328.79185313 268.31548787 -323.6796875 264.2109375 C-320.86746685 261.8906505 -318.18202737 259.46928866 -315.5 257 C-311.94329756 253.72581577 -308.32838189 250.59357567 -304.5625 247.5625 C-300.0260327 243.90364231 -295.741339 240.05131037 -291.47851562 236.08398438 C-288.26718772 233.1129881 -284.97381211 230.30046168 -281.5625 227.5625 C-275.63056555 222.78447211 -270.10016078 217.62367901 -264.53710938 212.42822266 C-257.32605899 205.72799319 -250.03704238 198.98277769 -242.3125 192.875 C-238.68562725 189.93429236 -235.53468495 186.55955402 -232.3125 183.1875 C-230 181 -230 181 -228 181 C-227.67 180.01 -227.34 179.02 -227 178 C-225.50390625 176.4921875 -225.50390625 176.4921875 -223.5625 174.875 C-220.32723567 172.13168105 -217.14411801 169.34768648 -214 166.5 C-210.21439451 163.07715732 -206.38255425 159.71794858 -202.49609375 156.41015625 C-200.88204282 155.05086049 -200.88204282 155.05086049 -200 153 C-200.5576001 153.13575439 -201.1152002 153.27150879 -201.68969727 153.41137695 C-236.46800539 161.85319946 -236.46800539 161.85319946 -245 161 C-247.2935317 159.1630753 -247.92270027 158.44171272 -248.4375 155.5 C-248 153 -248 153 -246.5546875 151.46484375 C-242.79331705 149.30809464 -238.9265763 148.80148696 -234.6875 148.0625 C-226.6799576 146.55964766 -218.85826205 144.83520258 -211.02246094 142.58154297 C-209.57926974 142.16656452 -208.13441176 141.75736468 -206.68847656 141.35205078 C-200.75362962 139.68412573 -194.86352629 137.90369696 -189 136 C-188.2383252 135.75443359 -187.47665039 135.50886719 -186.69189453 135.25585938 C-175.26244055 131.44352665 -167.35314895 125.74042202 -158.63671875 117.51123047 C-156.37493678 115.42286078 -153.98665884 113.52072178 -151.5625 111.625 C-147.97463259 108.79837419 -144.52740429 105.8604052 -141.109375 102.83203125 C-137.80125907 99.9588713 -134.38735131 97.21751393 -130.98828125 94.453125 C-127.79759991 91.83384672 -124.6451587 89.17354752 -121.5 86.5 C-115.72466163 81.59440565 -109.87929852 76.78068508 -104 72 C-98.30995617 67.36093108 -92.63575792 62.70494887 -87 58 C-81.36351869 53.29570598 -75.69095275 48.6381633 -70 44 C-68.79549306 43.0131183 -67.59107095 42.02613304 -66.38671875 41.0390625 C-14.13401374 -1.71016536 -14.13401374 -1.71016536 0 0 Z M-17.0625 17.625 C-18.25886657 18.55240336 -19.45548019 19.47948811 -20.65234375 20.40625 C-21.23226074 20.85613281 -21.81217773 21.30601562 -22.40966797 21.76953125 C-26.38939559 24.84871872 -30.41145791 27.866741 -34.5078125 30.7890625 C-40.5045643 35.077338 -46.19993238 39.60264682 -51.828125 44.36328125 C-55.16861244 47.16832669 -58.61275662 49.83147232 -62.0625 52.5 C-66.39716242 55.8624899 -70.53879654 59.32536845 -74.5625 63.0625 C-79.41880798 67.569382 -84.52868944 71.57163075 -89.8046875 75.5625 C-93.72661646 78.53401563 -97.52273678 81.65221296 -101.31640625 84.78515625 C-103.12919392 86.28129979 -104.94974557 87.76807835 -106.77734375 89.24609375 C-112.25159025 93.6761642 -117.55512094 98.23889403 -122.76171875 102.98046875 C-125.44612148 105.40252147 -128.19881784 107.71482508 -131 110 C-130.34 110.33 -129.68 110.66 -129 111 C-126.12967557 109.48718056 -126.12967557 109.48718056 -122.9375 107.375 C-119.22021774 104.99700017 -115.5277985 102.72531769 -111.640625 100.63671875 C-106.74201374 97.9448434 -102.29838543 94.76080302 -97.8125 91.4375 C-96.27807894 90.31019653 -94.74293786 89.18387237 -93.20703125 88.05859375 C-92.48547852 87.52991699 -91.76392578 87.00124023 -91.02050781 86.45654297 C-88.39465426 84.56361857 -85.70677472 82.77474325 -83 81 C-66.41826161 69.75019869 -49.88972931 57.60832787 -35.18359375 43.97265625 C-33.65219338 42.5891908 -32.06496352 41.26624618 -30.44140625 39.9921875 C-28.17672327 38.14420619 -26.37433459 36.29490322 -24.5 34.0625 C-21.79276403 30.8923384 -18.94850039 27.94850039 -16 25 C-12.40323826 21.49419291 -12.40323826 21.49419291 -11 17 C-10.34 17 -9.68 17 -9 17 C-9.495 15.02 -9.495 15.02 -10 13 C-12.40414622 13 -15.15544876 16.13503352 -17.0625 17.625 Z M-365 316 C-365.66 317.32 -366.32 318.64 -367 320 C-365.68 319.67 -364.36 319.34 -363 319 C-363.33 318.01 -363.66 317.02 -364 316 C-364.33 316 -364.66 316 -365 316 Z " fill="#fefff0" transform="translate(677,132)"/>
</svg>
